/* XPM */
static char *_b67c201cc2c4922fc1ebfdbc89cbcb1gck6ThVit9KXoEVS[] = {
/* columns rows colors chars-per-pixel */
"64 64 21 1 ",
"  c black",
". c gray11",
"X c gray13",
"o c #2D2D2D",
"O c #393939",
"+ c #5E4221",
"@ c #774E29",
"# c gray29",
"$ c #565656",
"% c #676767",
"& c gray45",
"* c gray50",
"= c #DE0000",
"- c #9C4E00",
"; c #CE6300",
": c #FF7B00",
"> c #F75252",
", c #F7945E",
"< c gray61",
"1 c gray71",
"2 c #EFEFEF",
/* pixels */
"OOOOO#O####%#%%%%%%%%%%%%%%%%%%%%%%%%%%%%%%%%%%%%%%%%%#%##O#OOOO",
"O#%&********************************************************&%#O",
"O%&&&*<*<<<<<1<111111111111111111111111111111111<1<1<<<<*<*&&&%O",
"O#%&&&&&&&&&&&&&&&&&&&&&&&&&&&&&&&&&&&&&&&&&&&&&&&&&&&&&&&&&&%#O",
"XXXXXXXOXOOOOOOOOOOOOOOOOOOOOOOOOOOOOOOOOOOOOOOOOOOOOOOOOOXOXXXX",
"XXXXXXXXOXOOOOOXXXXXXXOXOOOOOOOOOOOOOOOOXOXXXXXXXXXOOOOXOXXXXXXX",
"X--;-XO#$%**%$#OXO#$%************************%$XO#$%**%$#OX--;-X",
"XO;:;X#$%*<<*%$#X#$%**<<<<<<<<<<<<<<<<<<<***%$#X#$%****%$#XO;:;X",
"XO%;-X$#OXXXOO#OX#$%*<<1<1111111111111<1<<*%$#OXO#OOXXXO$$XO%;-X",
"XO%#-X%OX#%##OOXOO##$$$$%%&&*******&&%%$$$##OOXXXOOX#%###%XO%#-X",
"XO%#OX%OX%<O$OXXXOO##$$$$%%&&*******&&%%$$$##OOXXXOX%<O$O*XO%#OX",
"X+%#O $OX#OXOXXO#$$%%&&***************#O$&&%%$$#OXXX#OX%O%X+%#OX",
"X-;#O $OO#$OXXO#$$%%&&**<*<<1<11111<*#O$&*&&%%$$#OXXO$%OO$ -;#OX",
"X-:;O #OOOOXXO###OOOOooOOooOOO####OOooo$$OOO##O#$#OXXOOOO# -:;OX",
"X-:;- OOOOXXO##OOOOOoXXoOoXoOOoooOOoXXo$OooO$OoO###OXXOOOO -::-X",
"XO;;- XOOXXO##OXXXOOoooXoOooOoXXoooXXXX$oooO#oXXXO##OXXOOX O;:-X",
"XO%;-    XO#$OX#%##OOoooXooOOXooooXoooX#ooO#OX#%##O##O.    O%;-X",
"XO%#+     #$#OX%<O$O#OooO##OoooOoooOOo.#OOoooX%<O$#O#O   .XO%#+X",
"XO%#OXOX  $$OOX#OX%OO#ooooOOooO#OOO#Oo.O##OooX#OX%##OO  .XXO%#OX",
"X+%#OX#O  $$ooO#$%Ooo#oXooO#OoOO###Ooo.oO#$#O##$%OO##O .XXX+%#OX",
"X+;#OX$#  #$oooO#Oooo#OooO#OoX.                       .XXo.+;#OX",
"X-:;OX%$  ##OooOOOooOOOOOOoXXO#$%&*<<<<<<<<<<<<<<*&%$#OXooX-:;OX",
"X-:;-X&%  OoX.           .XO#$%&*<111111111111111<*&%$#XoO.-::-X",
"XO;;-X*&  #$%&*<<*&%$#OoXO#$$#====OoooO#%#OooO#$#OoooooXOo.O;:;X",
"XO%;-X<*  $%%$#OoXXoOOoXO#$#=>,22,>=OooOOoooXoO#OoooOOXX#O.O%;-X",
"XO%#+X<<X %&$#OOoooo#OXO##=>2,>>>>,,>=OoOoXooo#OoXXO#Oo $#.O%#-X",
" o#oo <<oX&*#OOOOoO#OoX#$=>,>=X  X=>,>=ooOoOO##OXXXOOOo $$.O%#OX",
" XXXX <<Oo*<OOOoXXoOOXO%#>,>=X    X=>,=OoOO#OOOoXXooOoX #$.+%#OX",
"oO#$#o<<#O<<OOoXXooXoX#$=,>>=XOOOOX=>>,=oooX            O#.-;#OX",
"O#$%$O<<$#*<OoOOOoOoXO$#>,>=>=OOOO=>=>,>OoXO#$%&*<*&%$# oO.-:;OX",
"#$%&%#<<%$**OoOOOOoOX#%@,>=@=>=OO=>=@=>,@oX#OOOXXXXOOO# ooX-::-X",
"#%&*%#<<$%&*OOooO#OOX#%@2=@ X=>>>>=X @=,@oXOOOXoOOooOoOXOo.O;:-X",
"#%*&%#<<#$&&OO###OOoX#%@,=@  X=,>=X  @=,@oXOOOX%&%$XooOXooXO%;-X",
"#$%%$#<<O#%&OOOOOOOoX#%@>=@ XXX,,XXX @=>@ooOoOX$%$#XO#OXOoXO%#+X",
"O#$$#O<<OO%%OOOOooOoXO$X=>@XOOX,,XOOX@>=XooOXooXXXXXOOOXOOXO%#OX",
"oO##Oo*<oO$%OOOoXXXoXX# @>=@OOO,,OOO@=>@XoXO#OOoXXoOOOo oOX+%#OX",
"XOOOoX**oo$$OooXXXoOXXO X=>=@OO2,OO@=>=XXoXoOOOOOOOOOoX OOX+;#OX",
"      &*Xo#$oOoOO##OoXoX @=>=@@,2@@=>=@ oOoX    XoooX   OoX-:;OX",
"X     &&XX##ooOOOOOOoXXoXX@=>>=>,=>>=@XXXXoOOOoooooO#Oo oOX-::-X",
"XO-++ %&XX##OO#OoXXoooXXoX X@=>>>>=@X XoXXXO#oXoooXoOOo ooXO;:;X",
"XO%-+ %%XX##O#OoXXoOOOoXXoX  X@@@@X  XoOoXXooXXXOOoXooX oO.O%;;X",
"XO%#-X$%XX##OOOoooOO#OOoX XoX      XoO#OooooXXXo##OooXoXO#.O%#-X",
"XO%#OX$$XXOOoX.             XXXXXXoO#OoooOOoXXoOO##OooOX##.O%#OX",
"X+%#OX#$XX#%**<<<<<*%$#OoooX                           X#O.+%#OX",
"X-;#OX## X#%$#OOOOOOOOOOOooooX                          Oo.-;#OX",
"X-:;OXO#  #$#OOXXXOOooO##OOooooXXXoooX XXoooooX  XooX   oo.-:;OX",
"X-:;-XOO  ##OOX#%##ooO##OooOOoXXooXooo XoooooXO$OOXooX  oX -:;-X",
"XO;;-XOO  O#OOX%<O$ooOooOooo#OXoOoooOoXOOO##OX%<O$O#OO  XX O;;-X",
"XO%;-XX   oOOOX#OX%OOoXXoOoO#OooOOOOOooOOO###X#OX%O#Oo XX  O%;-X",
"XO%#+X##OXXoOoo#$%OOOoooXoO#OooOoOOO#OoOooO##O#$%O##oXXO#O O%#+X",
"XO%#OX$$#OXXoooO#Ooo#OoOoXoOOoXoOOoo$OoOoXoOOOOOOO#OXXO#$# O%#OX",
"X+%#OX%%$#OXXoO#OoXoO#OOOooooXXO#oOO#OXOOoo#OooO#OOXXO#$%$ +%#OX",
"X-;#OX$OXXXOXXoOoXoOOO#OoooXXXoOOoO#Oo oO##OoXo##OXXXXXO%%X+;#OX",
"X-:;OX$X#%##OXXoooO#OOO##OoOoooooO#OoX XoOOOooO#OXXX#%###%X-:;OX",
"X-:;- $X%<O$#OXX         X XXXXXXXX X           XXOX%<O$O%X-:;-X",
"XO;;- #X#OX%##OXX     X XXXoO#######OoXX X     XXO#O#OX%O$XO;;-X",
"XO%;- #O#$%OO##OXO#$%%********************%%$#OXO####$%OO# O%;- ",
"XO%#+ OOOOOOOO#OXoO#$%%%%%%%%%%%%%%%%%%%%%%$#Oo oO#OOOOOOO O%#+ ",
"Xo#oo XOOOOOOOOX XoOOOOOOOOOOOOOOOOOOOOOOOOOOoX XoOOOOOOOX o#oo ",
"XX       XXXXXX     XXXoXoOoOOOOOOOoOooXoXX                     ",
"XO#$%%%%%%%%%%%%%%%%%%%%%%%%%%%%%%%%%%%%%%%%%%%%%%%%%%%%%%%%%$# ",
"X###$%*%*****<*<<<<<<<<<<<<<<<<<<<<<<<<<<<<<<<<<*<*<****%*%%$##X",
"X#############################################################OX",
"       X XXXXXXXXXXXXXXXXXXXXXXXXXXXXXXXXXXXXXXXXXXXXXXXXX X    "
};
