/* XPM */
static char *door_1_xpm[] = {
/* columns rows colors chars-per-pixel */
"64 64 21 1",
"  c black",
". c gray11",
"X c gray13",
"o c #2D2D2D",
"O c #393939",
"+ c #5E4221",
"@ c #774E29",
"# c gray29",
"$ c #565656",
"% c #676767",
"& c gray45",
"* c gray50",
"= c #DE0000",
"- c #9C4E00",
"; c #CE6300",
": c #FF7B00",
"> c #F75252",
", c #F7945E",
"< c gray61",
"1 c gray71",
"2 c #EFEFEF",
/* pixels */
"....XoXOOOO$#%%%%%%%%%%%%%%%%%%%%%%%%%%%%%%%%%%%%%%%%%#%##O#OOOO",
"..oO#$$%%%%&&&&*********************************************&%#O",
".oOO#$%%****<<<111111111111111111111111111111111<1<1<<<<*<*&&&%O",
" .oOO##$$$%%%%%&&&&&&&&&&&&&&&&&&&&&&&&&&&&&&&&&&&&&&&&&&&&&&%#O",
"    ...o.ooooOOOOOOOOOOOOOOOOOOOOOOOOOOOOOOOOOOOOOOOOOOOOOXOXXXX",
"    ....o.oooOOXXXXXXXOXOOOOOOOOOOOOOOOOXOXXXXXXXXXOOOOXOXXXXXXX",
" X+++.XO#$%&$##OXO#$%************************%$XO#$%**%$#OX--;-X",
" .+--.oO$%**&%$#X#$%**<<<<<<<<<<<<<<<<<<<***%$#X#$%****%$#XO;:;X",
" .O-+.OOo...OO#OX#$%*<<1<1111111111111<1<<*%$#OXO#OOXXXO$$XO%;-X",
" .Oo+.#o.O$##OOXOO##$$$$%%&&*******&&%%$$$##OOXXXOOX#%###%XO%#-X",
" .OoX.#o.$*o#OXXXOO##$$$$%%&&*******&&%%$$$##OOXXXOX%<O$O*XO%#OX",
".X#oo #o.Oo.OXXO#$$%%&&***************#O$&&%%$$#OXXX#OX%O%X+%#OX",
".+-Oo #ooO#OXXO#$$%%&&**<*<<1<11111<*#O$&*&&%%$$#OXXO$%OO$ -;#OX",
".+;-o OoooO.XO###OOOOooOOooOOO####OOooo$$OOO##O#$#OXXOOOO# -:;OX",
".-;-- oooO.XO##OOOOOoXXoOoXoOOoooOOoXXo$OooO$OoO###OXXOOOO -::-X",
".o--- .oO.XO##OXXXOOoooXoOooOoXXoooXXXX$oooO#oXXXO##OXXOOX O;:-X",
".o$--    XO#$OX#%##OOoooXooOOXooooXoooX#ooO#OX#%##O##O.    O%;-X",
".o$O+     #$#OX%<O$O#OooO##OoooOoooOOo.#OOoooX%<O$#O#O   .XO%#+X",
".o$#O.OX  $$OOX#OX%OO#ooooOOooO#OOO#Oo.O##OooX#OX%##OO  .XXO%#OX",
".+$#OX#O  $$ooO#$%Ooo#oXooO#OoOO###Ooo.oO#$#O##$%OO##O .XXX+%#OX",
".+;#OX$#  #$oooO#Oooo#OooO#OoX.                       .XXo.+;#OX",
"X-:;OX%$  ##OooOOOooOOOOOOoXXO#$%&*<<<<<<<<<<<<<<*&%$#OXooX-:;OX",
"X-:;-X&%  OoX.           .XO#$%&*<111111111111111<*&%$#XoO.-::-X",
"XO;;-X*&  #$%&*<<*&%$#OoXO#$$#====OoooO#%#OooO#$#OoooooXOo.O;:;X",
"XO%;-X<*  $%%$#OoXXoOOoXO#$#=>,22,>=OooOOoooXoO#OoooOOXX#O.O%;-X",
"XO%#+X<<X %&$#OOoooo#OXO##=>2,>>>>,,>=OoOoXooo#OoXXO#Oo $#.O%#-X",
" o#oo <<oX&*#OOOOoO#OoX#$=>,>=X  X=>,>=ooOoOO##OXXXOOOo $$.O%#OX",
" XXXX <<Oo*<OOOoXXoOOXO%#>,>=X    X==,=OoOO#OOOoXXooOoX #$.+%#OX",
"oO#$#o<<#O<<OOoXXooXoX#$=,>>oOOOOO=>=>,=oooX            O#.-;#OX",
"O#$%$O<<$#*<OoOOOoOoXO$#>,>oOOOOO=>= >,>OoXO#$%&*<*&%$# oO.-:;OX",
"#$%&%#<<%$**OoOOOOoOX#%@,>=oOOOO=>=  =>,@oX#OOOXXXXOOO# ooX-::-X",
"#%&*%#<<$%&*OOooO#OOX#%@2=@,2,=>>> oo@=,@oXOOOXoOOooOoOXOo.O;:-X",
"#%*&%#<<#$&&OO###OOoX#%@,=@2>=,,>>oOO@=,@oXOOOX%&%$XooOXooXO%;-X",
"#$%%$#<<O#%&OOOOOOOoX#%@>=@     =>=OO@=>@ooOoOX$%$#XO#OXOoXO%#+X",
"O#$$#O<<OO%%OOOOooOoXO$X=>@ oooo =>=O@>=XooOXooXXXXXOOOXOOXO%#OX",
"oO##Oo*<oO$%OOOoXXXoXX# @>=@oOOOo =>==>@XoXO#OOoXXoOOOo oOX+%#OX",
"XOOOoX**oo$$OooXXXoOXXO X=>=@OOOOo @=>=XXoXoOOOOOOOOOoX OOX+;#OX",
"      &*Xo#$oOoOO##OoXoX @=>=@@++@@=>=@ oOoX    XoooX   OoX-:;OX",
"X     &&XX##ooOOOOOOoXXoXX@=>>=>,=>>=@XXXXoOOOoooooO#Oo oOX-::-X",
"XO-++ %&XX##OO#OoXXoooXXoX X@=>>>>=@X XoXXXO#oXoooXoOOo ooXO;:;X",
"XO%-+ %%XX##O#OoXXoOOOoXXoX  X@@@@X  XoOoXXooXXXOOoXooX oO.O%;;X",
"XO%#-X$%XX##OOOoooOO#OOoX XoX      XoO#OooooXXXo##OooXoXO#.O%#-X",
"XO%#OX$$XXOOoX.             XXXXXXoO#OoooOOoXXoOO##OooOX##.O%#OX",
"X+%#OX#$XX#%**<<<<<*%$#OoooX                           X#O.+%#OX",
"X-;#OX## X#%$#OOOOOOOOOOOooooX                          Oo.-;#OX",
"X-:;OXO#  #$#OOXXXOOooO##OOooooXXXoooX XXoooooX  XooX   oo.-:;OX",
"X-:;-XOO  ##OOX#%##ooO##OooOOoXXooXooo XoooooXO$OOXooX  oX -:;-X",
"XO;;-XOO  O#OOX%<O$ooOooOooo#OXoOoooOoXOOO##OX%<O$O#OO  XX O;;-X",
"XO%;-XX   oOOOX#OX%OOoXXoOoO#OooOOOOOooOOO###X#OX%O#Oo XX  O%;-X",
"XO%#+X##OXXoOoo#$%OOOoooXoO#OooOoOOO#OoOooO##O#$%O##oXXO#O O%#+X",
"XO%#OX$$#OXXoooO#Ooo#OoOoXoOOoXoOOoo$OoOoXoOOOOOOO#OXXO#$# O%#OX",
"X+%#OX%%$#OXXoO#OoXoO#OOOooooXXO#oOO#OXOOoo#OooO#OOXXO#$%$ +%#OX",
"X-;#OX$OXXXOXXoOoXoOOO#OoooXXXoOOoO#Oo oO##OoXo##OXXXXXO%%X+;#OX",
"X-:;OX$X#%##OXXoooO#OOO##OoOoooooO#OoX XoOOOooO#OXXX#%###%X-:;OX",
"X-:;- $X%<O$#OXX         X XXXXXXXX X           XXOX%<O$O%X-:;-X",
"XO;;- #X#OX%##OXX     X XXXoO#######OoXX X     XXO#O#OX%O$XO;;-X",
"XO%;- #O#$%OO##OXO#$%%********************%%$#OXO####$%OO# O%;- ",
"XO%#+ OOOOOOOO#OXoO#$%%%%%%%%%%%%%%%%%%%%%%$#Oo oO#OOOOOOO O%#+ ",
"Xo#oo XOOOOOOOOX XoOOOOOOOOOOOOOOOOOOOOOOOOOOoX XoOOOOOOOX o#oo ",
"XX       XXXXXX     XXXoXoOoOOOOOOOoOooXoXX                     ",
"XO#$%%%%%%%%%%%%%%%%%%%%%%%%%%%%%%%%%%%%%%%%%%%%%%%%%%%%%%%%%$# ",
"X###$%*%*****<*<<<<<<<<<<<<<<<<<<<<<<<<<<<<<<<<<*<*<****%*%%$##X",
"X#############################################################OX",
"       X XXXXXXXXXXXXXXXXXXXXXXXXXXXXXXXXXXXXXXXXXXXXXXXXX X    "
};
